grf
version=1
nRows=16
nColumns=46
inDegrees=yes
endheader
time	ground_force_1_vx	ground_force_1_vy	ground_force_1_vz	ground_force_1_px	ground_force_1_py	ground_force_1_pz	ground_moment_1_mx	ground_moment_1_my	ground_moment_1_mz	ground_force_2_vx	ground_force_2_vy	ground_force_2_vz	ground_force_2_px	ground_force_2_py	ground_force_2_pz	ground_moment_2_mx	ground_moment_2_my	ground_moment_2_mz	ground_force_3_vx	ground_force_3_vy	ground_force_3_vz	ground_force_3_px	ground_force_3_py	ground_force_3_pz	ground_moment_3_mx	ground_moment_3_my	ground_moment_3_mz	ground_force_4_vx	ground_force_4_vy	ground_force_4_vz	ground_force_4_px	ground_force_4_py	ground_force_4_pz	ground_moment_4_mx	ground_moment_4_my	ground_moment_4_mz	ground_force_5_vx	ground_force_5_vy	ground_force_5_vz	ground_force_5_px	ground_force_5_py	ground_force_5_pz	ground_moment_5_mx	ground_moment_5_my	ground_moment_5_mz
2.575000	0.000000	0.000000	0.000000	0.000000	0.000000	0.000000	0.000000	0.000000	0.000000	0.000000	0.000000	0.000000	0.000000	0.000000	0.000000	0.000000	0.000000	0.000000	0.000000	0.000000	0.000000	0.000000	0.000000	0.000000	0.000000	0.000000	0.000000	9.664463	523.043078	14.448407	1.086824	0.000000	0.226600	-0.000000	5.049556	0.000000	-8.631602	512.854074	10.018855	1.382545	0.000000	0.248583	0.000000	-3.913659	-0.000000
2.575500	0.000000	0.000000	0.000000	0.000000	0.000000	0.000000	0.000000	0.000000	0.000000	0.000000	0.000000	0.000000	0.000000	0.000000	0.000000	0.000000	0.000000	0.000000	0.000000	0.000000	0.000000	0.000000	0.000000	0.000000	0.000000	0.000000	0.000000	9.648199	523.252748	14.524188	1.086832	0.000000	0.226581	-0.000000	5.051834	0.000000	-8.636194	512.926030	10.080580	1.382554	0.000000	0.248580	0.000000	-3.914320	-0.000000
2.576000	0.000000	0.000000	0.000000	0.000000	0.000000	0.000000	0.000000	0.000000	0.000000	0.000000	0.000000	0.000000	0.000000	0.000000	0.000000	0.000000	0.000000	0.000000	0.000000	0.000000	0.000000	0.000000	0.000000	0.000000	0.000000	0.000000	0.000000	9.631772	523.465008	14.598968	1.086840	0.000000	0.226563	-0.000000	5.054060	0.000000	-8.641012	513.000337	10.140093	1.382562	0.000000	0.248577	0.000000	-3.914967	-0.000000
2.576500	0.000000	0.000000	0.000000	0.000000	0.000000	0.000000	0.000000	0.000000	0.000000	0.000000	0.000000	0.000000	0.000000	0.000000	0.000000	0.000000	0.000000	0.000000	0.000000	0.000000	0.000000	0.000000	0.000000	0.000000	0.000000	0.000000	0.000000	9.615187	523.679678	14.672729	1.086848	0.000000	0.226545	-0.000000	5.056227	0.000000	-8.646022	513.076928	10.197402	1.382570	0.000000	0.248574	0.000000	-3.915603	-0.000000
2.577000	0.000000	0.000000	0.000000	0.000000	0.000000	0.000000	0.000000	0.000000	0.000000	0.000000	0.000000	0.000000	0.000000	0.000000	0.000000	0.000000	0.000000	0.000000	0.000000	0.000000	0.000000	0.000000	0.000000	0.000000	0.000000	0.000000	0.000000	9.598448	523.896575	14.745454	1.086856	0.000000	0.226527	-0.000000	5.058328	0.000000	-8.651182	513.155731	10.252523	1.382578	0.000000	0.248571	0.000000	-3.916231	-0.000000
2.577500	0.000000	0.000000	0.000000	0.000000	0.000000	0.000000	0.000000	0.000000	0.000000	0.000000	0.000000	0.000000	0.000000	0.000000	0.000000	0.000000	0.000000	0.000000	0.000000	0.000000	0.000000	0.000000	0.000000	0.000000	0.000000	0.000000	0.000000	9.581559	524.115518	14.817126	1.086864	0.000000	0.226509	-0.000000	5.060356	0.000000	-8.656443	513.236671	10.305483	1.382585	0.000000	0.248568	0.000000	-3.916854	-0.000000
2.578000	0.000000	0.000000	0.000000	0.000000	0.000000	0.000000	0.000000	0.000000	0.000000	0.000000	0.000000	0.000000	0.000000	0.000000	0.000000	0.000000	0.000000	0.000000	0.000000	0.000000	0.000000	0.000000	0.000000	0.000000	0.000000	0.000000	0.000000	9.564521	524.336327	14.887733	1.086872	0.000000	0.226491	-0.000000	5.062302	0.000000	-8.661748	513.319659	10.356318	1.382591	0.000000	0.248565	0.000000	-3.917478	-0.000000
2.578500	0.000000	0.000000	0.000000	0.000000	0.000000	0.000000	0.000000	0.000000	0.000000	0.000000	0.000000	0.000000	0.000000	0.000000	0.000000	0.000000	0.000000	0.000000	0.000000	0.000000	0.000000	0.000000	0.000000	0.000000	0.000000	0.000000	0.000000	9.547339	524.558815	14.957265	1.086880	0.000000	0.226474	-0.000000	5.064156	0.000000	-8.667037	513.404595	10.405074	1.382597	0.000000	0.248562	0.000000	-3.918106	-0.000000
2.579000	0.000000	0.000000	0.000000	0.000000	0.000000	0.000000	0.000000	0.000000	0.000000	0.000000	0.000000	0.000000	0.000000	0.000000	0.000000	0.000000	0.000000	0.000000	0.000000	0.000000	0.000000	0.000000	0.000000	0.000000	0.000000	0.000000	0.000000	9.530017	524.782787	15.025711	1.086888	0.000000	0.226457	-0.000000	5.065908	0.000000	-8.672251	513.491363	10.451802	1.382603	0.000000	0.248560	0.000000	-3.918741	-0.000000
2.579500	0.000000	0.000000	0.000000	0.000000	0.000000	0.000000	0.000000	0.000000	0.000000	0.000000	0.000000	0.000000	0.000000	0.000000	0.000000	0.000000	0.000000	0.000000	0.000000	0.000000	0.000000	0.000000	0.000000	0.000000	0.000000	0.000000	0.000000	9.512561	525.008053	15.093068	1.086896	0.000000	0.226440	-0.000000	5.067549	0.000000	-8.677337	513.579844	10.496563	1.382608	0.000000	0.248557	0.000000	-3.919386	-0.000000
2.580000	0.000000	0.000000	0.000000	0.000000	0.000000	0.000000	0.000000	0.000000	0.000000	0.000000	0.000000	0.000000	0.000000	0.000000	0.000000	0.000000	0.000000	0.000000	0.000000	0.000000	0.000000	0.000000	0.000000	0.000000	0.000000	0.000000	0.000000	9.494973	525.234426	15.159341	1.086904	0.000000	0.226423	-0.000000	5.069072	0.000000	-8.682237	513.669922	10.539418	1.382613	0.000000	0.248554	0.000000	-3.920044	-0.000000
2.580500	0.000000	0.000000	0.000000	0.000000	0.000000	0.000000	0.000000	0.000000	0.000000	0.000000	0.000000	0.000000	0.000000	0.000000	0.000000	0.000000	0.000000	0.000000	0.000000	0.000000	0.000000	0.000000	0.000000	0.000000	0.000000	0.000000	0.000000	9.477260	525.461716	15.224542	1.086912	0.000000	0.226406	-0.000000	5.070471	0.000000	-8.686898	513.761511	10.580438	1.382618	0.000000	0.248552	0.000000	-3.920716	-0.000000
2.581000	0.000000	0.000000	0.000000	0.000000	0.000000	0.000000	0.000000	0.000000	0.000000	0.000000	0.000000	0.000000	0.000000	0.000000	0.000000	0.000000	0.000000	0.000000	0.000000	0.000000	0.000000	0.000000	0.000000	0.000000	0.000000	0.000000	0.000000	9.459430	525.689721	15.288689	1.086920	0.000000	0.226390	-0.000000	5.071744	0.000000	-8.691262	513.854553	10.619701	1.382622	0.000000	0.248549	0.000000	-3.921404	-0.000000
2.581500	0.000000	0.000000	0.000000	0.000000	0.000000	0.000000	0.000000	0.000000	0.000000	0.000000	0.000000	0.000000	0.000000	0.000000	0.000000	0.000000	0.000000	0.000000	0.000000	0.000000	0.000000	0.000000	0.000000	0.000000	0.000000	0.000000	0.000000	9.441500	525.918233	15.351806	1.086929	0.000000	0.226373	-0.000000	5.072889	0.000000	-8.695272	513.949017	10.657287	1.382625	0.000000	0.248547	0.000000	-3.922112	-0.000000
2.582000	0.000000	0.000000	0.000000	0.000000	0.000000	0.000000	0.000000	0.000000	0.000000	0.000000	0.000000	0.000000	0.000000	0.000000	0.000000	0.000000	0.000000	0.000000	0.000000	0.000000	0.000000	0.000000	0.000000	0.000000	0.000000	0.000000	0.000000	9.423487	526.147057	15.413921	1.086937	0.000000	0.226357	-0.000000	5.073904	0.000000	-8.698879	514.044881	10.693286	1.382628	0.000000	0.248544	0.000000	-3.922843	-0.000000
2.582500	0.000000	0.000000	0.000000	0.000000	0.000000	0.000000	0.000000	0.000000	0.000000	0.000000	0.000000	0.000000	0.000000	0.000000	0.000000	0.000000	0.000000	0.000000	0.000000	0.000000	0.000000	0.000000	0.000000	0.000000	0.000000	0.000000	0.000000	9.405411	526.376011	15.475060	1.086946	0.000000	0.226341	-0.000000	5.074787	0.000000	-8.702034	514.142127	10.727787	1.382631	0.000000	0.248542	0.000000	-3.923601	-0.000000
